<?xml version="1.0" encoding="iso-8859-1"?>
<!-- Generator: Adobe Illustrator 19.0.0, SVG Export Plug-In . SVG Version: 6.00 Build 0)  -->
<svg version="1.1" id="Layer_1" xmlns="http://www.w3.org/2000/svg" xmlns:xlink="http://www.w3.org/1999/xlink" x="0px" y="0px"
	 viewBox="0 0 496.2 496.2" style="enable-background:new 0 0 496.2 496.2;" xml:space="preserve">
<path style="fill:#48A1AF;" d="M496.2,248.1C496.2,111.1,385.1,0,248.1,0S0,111.1,0,248.1s111.1,248.1,248.1,248.1
	S496.2,385.1,496.2,248.1z"/>
<path style="fill:#172023;" d="M248.1,496.2c70.2,0,133.6-29.2,178.7-76c-2.8-15.1-5.6-28.9-8.3-37.4
	c-8.5-27.3-81.2-49.3-170.8-49.3s-161.5,22-170,49.3c-2.6,8.5-5.5,22.2-8.3,37.4C114.5,467,177.9,496.2,248.1,496.2z"/>
<path style="fill:#E2A379;" d="M287,282.1h-77.8c12.1,36.6,1,53.3,1,53.3s11.9,13.2,37.9,13.2s37.9-13.2,37.9-13.2
	S274.9,318.7,287,282.1z"/>
<path style="fill:#F4B382;" d="M336.4,175.2c0-92.4-39.5-113.6-88.3-113.6c-48.7,0-88.3,21.2-88.3,113.6c0,31.3,6.2,55.8,15.5,74.7
	c20.4,41.6,55.7,56.1,72.8,56.1s52.4-14.5,72.8-56.1C330.2,231,336.4,206.5,336.4,175.2z"/>
<path style="fill:#BC8A68;" d="M320.9,175.2c0,0-0.4,56.2-28.5,56.2c-24.8,0-34-9.3-44.3-9.3s-19.5,9.3-44.3,9.3
	c-24.7,0-28.5-56.2-28.5-56.2c0,31.3-9.3,55.8,0,74.7c20.4,41.6,55.7,56.1,72.8,56.1s52.4-14.5,72.8-56.1
	C330.2,231,320.9,206.5,320.9,175.2z"/>
<g>
	<path style="fill:#F4B382;" d="M170.4,238.7c-8.4,1.4-14.4,0.1-19.1-27.7s1.7-31.5,10.1-32.9L170.4,238.7z"/>
	<path style="fill:#F4B382;" d="M325.9,238.7c8.4,1.4,14.3,0.1,19.1-27.7c4.8-27.8-1.7-31.5-10.1-32.9L325.9,238.7z"/>
</g>
<g>
	<path style="fill:#47200D;" d="M336.4,175.2c0-92.4-30.3-116.1-88.3-116.1s-88.3,23.7-88.3,116.1c0,0,16.3-34.1,28.3-53.1
		s38-18.3,38-18.3h49c0,0,27,0.3,34.5,18.3L336.4,175.2z"/>
	<path style="fill:#47200D;" d="M165.5,140.8c-4.2,10.9-5.6,24.4-5.6,37.5c0,0,8.8-1.9,8.8,2.6l2.8,27.6l3.9-1.9
		c-0.2-23,4.9-83.5,4.9-83.5L165.5,140.8z"/>
	<path style="fill:#47200D;" d="M330.8,140.8c4.2,10.9,5.6,24.4,5.6,37.5c0,0-8.8-1.9-8.8,2.6l-2.8,27.6l-3.9-1.9
		c0.2-23-4.9-81.7-4.9-81.7L330.8,140.8z"/>
</g>
<path style="fill:#172023;" d="M420.6,390.3L420.6,390.3L420.6,390.3z"/>
<g>
	<path style="fill:#FFFFFF;" d="M248.9,456.2c-58.2,0-111.3-3.9-151.8-10.4c17.2,13.2,36.3,24.3,56.7,32.7c29,2.4,61.2,3.7,95.2,3.7
		c33.1,0,64.6-1.3,93.1-3.6c20.4-8.3,39.4-19.3,56.6-32.5C358.4,452.4,306.1,456.2,248.9,456.2z"/>
	<path style="fill:#FFFFFF;" d="M426,415.4c-1.7-8.9-3.4-17.2-5.1-24c-22.2,4.4-49.6,8-80.4,10.4c-28.2,2.2-59.2,3.4-91.9,3.4
		c-32.5,0-63.5-1.2-91.5-3.4c-31.4-2.4-59.3-6.1-81.7-10.6c-1.7,6.8-3.4,15.2-5.1,24.2c42.6,9.1,106.5,15,177.9,15
		C319.5,430.4,383.3,424.6,426,415.4z"/>
	<path style="fill:#FFFFFF;" d="M248.1,381.3c37,0,71.9-1.7,102.4-4.6c21.6-2.1,41-4.8,57.5-8c-9-7.4-22.9-14.1-40.5-19.6
		c-25,5.8-69.1,9.6-119.4,9.6c-50.4,0-94.6-3.9-119.6-9.7c-17.6,5.5-31.5,12.2-40.4,19.7c16.7,3.2,36.4,6,58.4,8.1
		C176.8,379.6,211.4,381.3,248.1,381.3z"/>
	<path style="fill:#FFFFFF;" d="M311.5,337.4L311.5,337.4L311.5,337.4L311.5,337.4z"/>
	<path style="fill:#FFFFFF;" d="M298.5,335.9L298.5,335.9L298.5,335.9z"/>
</g>
<g>
	<path style="fill:#3A3A3A;" d="M330.6,121.1c0-51.1-36.9-62.8-82.5-62.8s-82.5,11.7-82.5,62.8H330.6z"/>
	<path style="fill:#3A3A3A;" d="M188.5,121.1h119.1c-16.3-5-37-6.6-59.6-6.6C225.5,114.4,204.8,116.1,188.5,121.1z"/>
</g>
<g>
	<path style="fill:#FFFFFF;" d="M327,96.8c-3.6-10.7-9.7-18.6-17.8-24.3c-16.5-5.4-37.9-7.1-61.2-7.1s-44.7,1.8-61.2,7.1
		c-8.1,5.8-14.2,13.7-17.8,24.3C186.1,84.5,215.1,81,248.1,81S310.1,84.5,327,96.8z"/>
	<path style="fill:#FFFFFF;" d="M330.5,117.4c-16.2-14.6-47.1-18.6-82.4-18.6c-35.4,0-66.2,4-82.4,18.6c0,1.2-0.1,2.4-0.1,3.7h23
		c16.3-5,37-6.6,59.6-6.6s43.3,1.7,59.6,6.6h23C330.6,119.8,330.6,118.6,330.5,117.4z"/>
</g>
<path style="fill:#2D2D2D;" d="M342.3,147.7c0,5.7-4.6,10.3-10.3,10.3c0,0-33.9-13.7-84-13.7S164,158,164,158
	c-5.7,0-10.3-4.6-10.3-10.3v-20.4c0-5.7,4.6-10.3,10.3-10.3c0,0,42.7-13.7,84-13.7s84,13.7,84,13.7c5.7,0,10.3,4.6,10.3,10.3V147.7z
	"/>
<g>
	<path style="fill:#FFFFFF;" d="M164.1,117c-0.2,0-0.4,0-0.6,0v40.9c0.2,0,0.4,0,0.6,0c0,0,4.8-2,13.5-4.4v-40.4
		C169.2,115.3,164.1,117,164.1,117z"/>
	<path style="fill:#FFFFFF;" d="M194.5,109.3v40.2c4.3-0.9,9-1.7,14.1-2.4v-40.4C203.7,107.5,199,108.4,194.5,109.3z"/>
	<path style="fill:#FFFFFF;" d="M225.5,104.5v40.6c4.5-0.4,9.2-0.6,14.1-0.8v-40.9C234.9,103.6,230.2,104,225.5,104.5z"/>
	<path style="fill:#FFFFFF;" d="M256.5,103.4v40.9c4.9,0.2,9.6,0.4,14.1,0.8v-40.7C266,104,261.3,103.6,256.5,103.4z"/>
	<path style="fill:#FFFFFF;" d="M287.5,106.7v40.4c5.1,0.7,9.8,1.6,14.1,2.4v-40.2C297.2,108.4,292.5,107.5,287.5,106.7z"/>
	<path style="fill:#FFFFFF;" d="M332.1,117c0,0-5.1-1.6-13.5-3.8v40.4c8.7,2.4,13.5,4.4,13.5,4.4c0.2,0,0.4,0,0.6,0v-40.9
		C332.5,117,332.3,117,332.1,117z"/>
</g>
<g>
</g>
<g>
</g>
<g>
</g>
<g>
</g>
<g>
</g>
<g>
</g>
<g>
</g>
<g>
</g>
<g>
</g>
<g>
</g>
<g>
</g>
<g>
</g>
<g>
</g>
<g>
</g>
<g>
</g>
</svg>
